# xmcd CD database file
#
# Track frame offsets:
#	150
#	19147
#	36979
#	55463
#	70961
#	87867
#	106020
#	122963
#	138308
#	150954
#	170488
#	194707
#	213808
#	228108
#	242728
#	270202
#	291392
#	305522
#
# Disc length: 4338 seconds
#
# Revision: 0
# Processed by: cddbd v1.4PL0 Copyright (c) Steve Scherf et al.
# Submitted via: CDex 1.51
#
DISCID=fa10f012
DTITLE=La Banda Al Rojo Vivo - Made in Bs As
DYEAR=2003
DGENRE=Merengue
TTITLE0=Boquita mentirosa
TTITLE1=Te quiero
TTITLE2=Digale
TTITLE3=Amame
TTITLE4=Abrazame
TTITLE5=No ha sido facil
TTITLE6=Alcoba prestada
TTITLE7=Destino
TTITLE8=Las mujeres son
TTITLE9=No se que hacer
TTITLE10=Con todos menos conmigo
TTITLE11=Mi pecado
TTITLE12=Aprendiendo a vivir
TTITLE13=Se ve bien buena/Me rompio el corazon
TTITLE14=No quiero saber de ti/Negrita
TTITLE15=Piel de Angel
TTITLE16=Cachetada
TTITLE17=No hay forma de pedir perdón
EXTD=YEAR: 2003
EXTT0=
EXTT1=
EXTT2=
EXTT3=
EXTT4=
EXTT5=
EXTT6=
EXTT7=
EXTT8=
EXTT9=
EXTT10=
EXTT11=
EXTT12=
EXTT13=
EXTT14=
EXTT15=
EXTT16=
EXTT17=
PLAYORDER=
